<?xml version="1.0" encoding="UTF-8"?>
<!DOCTYPE svg PUBLIC "-//W3C//DTD SVG 1.1//EN" "http://www.w3.org/Graphics/SVG/1.1/DTD/svg11.dtd">
<svg xmlns="http://www.w3.org/2000/svg" version="1.1" width="222px" height="222px" style="shape-rendering:geometricPrecision; text-rendering:geometricPrecision; image-rendering:optimizeQuality; fill-rule:evenodd; clip-rule:evenodd" xmlns:xlink="http://www.w3.org/1999/xlink">
<g><path style="opacity:1" fill="#fdfdfe" d="M -0.5,-0.5 C 73.5,-0.5 147.5,-0.5 221.5,-0.5C 221.5,73.5 221.5,147.5 221.5,221.5C 147.5,221.5 73.5,221.5 -0.5,221.5C -0.5,147.5 -0.5,73.5 -0.5,-0.5 Z"/></g>
<g><path style="opacity:1" fill="#1e3050" d="M 82.5,29.5 C 89.375,28.5235 95.2084,30.5235 100,35.5C 117.667,65.8333 135.333,96.1667 153,126.5C 158.184,135.562 157.018,143.729 149.5,151C 127.827,164.172 105.827,176.839 83.5,189C 75.3446,190.84 68.8446,188.34 64,181.5C 46.6667,151.5 29.3333,121.5 12,91.5C 7.72989,82.7479 8.89656,74.9145 15.5,68C 37.9282,55.1259 60.2615,42.2925 82.5,29.5 Z"/></g>
<g><path style="opacity:1" fill="#1e3050" d="M 120.5,49.5 C 145.502,49.3334 170.502,49.5 195.5,50C 200.712,51.0174 204.545,53.8508 207,58.5C 208.655,98.0824 208.988,137.749 208,177.5C 206.066,183.767 201.9,187.601 195.5,189C 169.167,189.667 142.833,189.667 116.5,189C 114.919,188.293 113.419,187.46 112,186.5C 111.383,185.551 111.549,184.718 112.5,184C 126.5,176 140.5,168 154.5,160C 166.459,149.928 169.292,137.761 163,123.5C 148.557,98.9416 134.39,74.275 120.5,49.5 Z"/></g>
</svg>
